<svg width="48" height="48" viewBox="0 0 48 48" fill="none" xmlns="http://www.w3.org/2000/svg">
<path d="M40.2422 35.7937C39.3579 33.6992 38.0747 31.7967 36.4641 30.1922C34.8583 28.583 32.9561 27.3 30.8625 26.4141C30.8437 26.4047 30.825 26.4 30.8062 26.3906C33.7266 24.2812 35.625 20.8453 35.625 16.9688C35.625 10.5469 30.4219 5.34375 24 5.34375C17.5781 5.34375 12.375 10.5469 12.375 16.9688C12.375 20.8453 14.2734 24.2812 17.1937 26.3953C17.175 26.4047 17.1562 26.4094 17.1375 26.4187C15.0375 27.3047 13.1531 28.575 11.5359 30.1969C9.92676 31.8027 8.64377 33.7049 7.75781 35.7984C6.88744 37.8481 6.41804 40.0455 6.375 42.2719C6.37374 42.3219 6.38252 42.3717 6.4008 42.4183C6.41909 42.4648 6.44651 42.5073 6.48146 42.5431C6.51641 42.5789 6.55817 42.6074 6.60429 42.6268C6.65041 42.6463 6.69995 42.6563 6.75 42.6562H9.5625C9.76875 42.6562 9.93281 42.4922 9.9375 42.2906C10.0312 38.6719 11.4844 35.2828 14.0531 32.7141C16.7109 30.0563 20.2406 28.5938 24 28.5938C27.7594 28.5938 31.2891 30.0563 33.9469 32.7141C36.5156 35.2828 37.9687 38.6719 38.0625 42.2906C38.0672 42.4969 38.2312 42.6562 38.4375 42.6562H41.25C41.3 42.6563 41.3496 42.6463 41.3957 42.6268C41.4418 42.6074 41.4836 42.5789 41.5185 42.5431C41.5535 42.5073 41.5809 42.4648 41.5992 42.4183C41.6175 42.3717 41.6262 42.3219 41.625 42.2719C41.5781 40.0312 41.1141 37.8516 40.2422 35.7937V35.7937ZM24 25.0312C21.8484 25.0312 19.8234 24.1922 18.3 22.6688C16.7766 21.1453 15.9375 19.1203 15.9375 16.9688C15.9375 14.8172 16.7766 12.7922 18.3 11.2687C19.8234 9.74531 21.8484 8.90625 24 8.90625C26.1516 8.90625 28.1766 9.74531 29.7 11.2687C31.2234 12.7922 32.0625 14.8172 32.0625 16.9688C32.0625 19.1203 31.2234 21.1453 29.7 22.6688C28.1766 24.1922 26.1516 25.0312 24 25.0312Z" fill="#777777"/>
</svg>
