<svg width="48" height="48" viewBox="0 0 48 48" fill="none" xmlns="http://www.w3.org/2000/svg">
<path d="M6 24H24V27H6V24Z" fill="#777777"/>
<path d="M3 16.5H18V19.5H3V16.5Z" fill="#777777"/>
<path d="M44.8785 24.909L40.3785 14.409C40.263 14.1391 40.0708 13.9091 39.8258 13.7475C39.5807 13.5859 39.2936 13.4998 39 13.5H34.5V10.5C34.5 10.1022 34.342 9.72064 34.0607 9.43934C33.7794 9.15804 33.3978 9 33 9H9.00001V12H31.5V30.834C30.8165 31.2309 30.2183 31.7592 29.74 32.3884C29.2617 33.0176 28.9126 33.7352 28.713 34.5H19.287C18.9219 33.086 18.0537 31.8537 16.845 31.0341C15.6363 30.2145 14.1702 29.8638 12.7215 30.0478C11.2728 30.2318 9.94091 30.9379 8.97553 32.0337C8.01015 33.1294 7.47754 34.5396 7.47754 36C7.47754 37.4604 8.01015 38.8706 8.97553 39.9663C9.94091 41.0621 11.2728 41.7682 12.7215 41.9522C14.1702 42.1362 15.6363 41.7855 16.845 40.9659C18.0537 40.1463 18.9219 38.914 19.287 37.5H28.713C29.0393 38.7874 29.7856 39.9292 30.8337 40.7448C31.8818 41.5604 33.1719 42.0032 34.5 42.0032C35.8281 42.0032 37.1182 41.5604 38.1663 40.7448C39.2145 39.9292 39.9607 38.7874 40.287 37.5H43.5C43.8978 37.5 44.2794 37.342 44.5607 37.0607C44.842 36.7794 45 36.3978 45 36V25.5C45.0001 25.2968 44.9587 25.0957 44.8785 24.909V24.909ZM13.5 39C12.9067 39 12.3267 38.8241 11.8333 38.4944C11.34 38.1648 10.9554 37.6962 10.7284 37.1481C10.5013 36.5999 10.4419 35.9967 10.5577 35.4147C10.6734 34.8328 10.9591 34.2982 11.3787 33.8787C11.7983 33.4591 12.3328 33.1734 12.9147 33.0576C13.4967 32.9419 14.0999 33.0013 14.6481 33.2284C15.1962 33.4554 15.6648 33.8399 15.9944 34.3333C16.3241 34.8266 16.5 35.4067 16.5 36C16.4992 36.7954 16.1829 37.558 15.6205 38.1204C15.058 38.6829 14.2954 38.9992 13.5 39V39ZM34.5 16.5H38.01L41.226 24H34.5V16.5ZM34.5 39C33.9067 39 33.3267 38.8241 32.8333 38.4944C32.34 38.1648 31.9554 37.6962 31.7284 37.1481C31.5013 36.5999 31.4419 35.9967 31.5577 35.4147C31.6734 34.8328 31.9591 34.2982 32.3787 33.8787C32.7983 33.4591 33.3328 33.1734 33.9147 33.0576C34.4967 32.9419 35.0999 33.0013 35.6481 33.2284C36.1962 33.4554 36.6648 33.8399 36.9944 34.3333C37.3241 34.8266 37.5 35.4067 37.5 36C37.4992 36.7954 37.1829 37.558 36.6205 38.1204C36.058 38.6829 35.2954 38.9992 34.5 39ZM42 34.5H40.287C39.9566 33.2151 39.2092 32.0763 38.1619 31.2619C37.1146 30.4475 35.8267 30.0037 34.5 30V27H42V34.5Z" fill="#777777"/>
</svg>
