<svg width="48" height="48" viewBox="0 0 48 48" fill="none" xmlns="http://www.w3.org/2000/svg">
<path d="M33 15V19.5C33 19.8978 32.842 20.2794 32.5607 20.5607C32.2794 20.842 31.8978 21 31.5 21H30V15H18V21H16.5C16.1022 21 15.7206 20.842 15.4393 20.5607C15.158 20.2794 15 19.8978 15 19.5V15H9V42H39V15H33ZM15 12C15 9.61305 15.9482 7.32387 17.636 5.63604C19.3239 3.94821 21.6131 3 24 3C26.3869 3 28.6761 3.94821 30.364 5.63604C32.0518 7.32387 33 9.61305 33 12H40.5C40.8978 12 41.2794 12.158 41.5607 12.4393C41.842 12.7206 42 13.1022 42 13.5V43.5C42 43.8978 41.842 44.2794 41.5607 44.5607C41.2794 44.842 40.8978 45 40.5 45H7.5C7.10218 45 6.72064 44.842 6.43934 44.5607C6.15804 44.2794 6 43.8978 6 43.5V13.5C6 13.1022 6.15804 12.7206 6.43934 12.4393C6.72064 12.158 7.10218 12 7.5 12H15ZM18 12H30C30 10.4087 29.3679 8.88258 28.2426 7.75736C27.1174 6.63214 25.5913 6 24 6C22.4087 6 20.8826 6.63214 19.7574 7.75736C18.6321 8.88258 18 10.4087 18 12V12Z" fill="#777777"/>
<path d="M9 33H39V36H9V33Z" fill="#777777"/>
</svg>
