<svg width="50" height="48" viewBox="0 0 50 48" fill="none" xmlns="http://www.w3.org/2000/svg">
<path d="M17.4174 28.533C17.6495 31.395 19.9523 33.624 24.0816 33.888V36H25.9141V33.873C30.1899 33.579 32.6882 31.335 32.6882 28.077C32.6882 25.116 30.7763 23.589 27.3587 22.797L25.9141 22.461V16.71C27.7466 16.914 28.9133 17.898 29.1943 19.26H32.4072C32.1751 16.503 29.7684 14.346 25.9141 14.112V12H24.0816V14.157C20.4318 14.508 17.9427 16.665 17.9427 19.716C17.9427 22.416 19.7935 24.132 22.8691 24.837L24.0816 25.131V31.233C22.2033 30.954 20.9602 29.943 20.6792 28.533H17.4174V28.533ZM24.0663 22.035C22.2643 21.624 21.287 20.787 21.287 19.527C21.287 18.117 22.3407 17.061 24.0816 16.752V22.032H24.0663V22.035ZM26.1798 25.614C28.3696 26.112 29.3806 26.919 29.3806 28.344C29.3806 29.97 28.1222 31.086 25.9141 31.29V25.554L26.1798 25.614V25.614Z" fill="#777777"/>
<path d="M25.0527 45C19.3826 45 13.9447 42.7875 9.93537 38.8492C5.926 34.911 3.67355 29.5695 3.67355 24C3.67355 18.4305 5.926 13.089 9.93537 9.15076C13.9447 5.21249 19.3826 3 25.0527 3C30.7228 3 36.1607 5.21249 40.1701 9.15076C44.1795 13.089 46.4319 18.4305 46.4319 24C46.4319 29.5695 44.1795 34.911 40.1701 38.8492C36.1607 42.7875 30.7228 45 25.0527 45ZM25.0527 48C31.5329 48 37.7476 45.4714 42.3297 40.9706C46.9119 36.4697 49.4861 30.3652 49.4861 24C49.4861 17.6348 46.9119 11.5303 42.3297 7.02944C37.7476 2.52856 31.5329 0 25.0527 0C18.5726 0 12.3579 2.52856 7.77575 7.02944C3.19361 11.5303 0.619385 17.6348 0.619385 24C0.619385 30.3652 3.19361 36.4697 7.77575 40.9706C12.3579 45.4714 18.5726 48 25.0527 48V48Z" fill="#777777"/>
<path d="M25.0528 40.5C20.5977 40.5 16.3251 38.7616 13.1749 35.6673C10.0246 32.5729 8.25487 28.3761 8.25487 24C8.25487 19.6239 10.0246 15.4271 13.1749 12.3327C16.3251 9.23839 20.5977 7.5 25.0528 7.5C29.5079 7.5 33.7805 9.23839 36.9307 12.3327C40.0809 15.4271 41.8507 19.6239 41.8507 24C41.8507 28.3761 40.0809 32.5729 36.9307 35.6673C33.7805 38.7616 29.5079 40.5 25.0528 40.5ZM25.0528 42C27.4593 42 29.8422 41.5344 32.0655 40.6298C34.2888 39.7252 36.3089 38.3994 38.0105 36.7279C39.7122 35.0565 41.062 33.0722 41.9829 30.8883C42.9038 28.7044 43.3778 26.3638 43.3778 24C43.3778 21.6362 42.9038 19.2956 41.9829 17.1117C41.062 14.9278 39.7122 12.9435 38.0105 11.2721C36.3089 9.60062 34.2888 8.27475 32.0655 7.37017C29.8422 6.46558 27.4593 6 25.0528 6C20.1927 6 15.5317 7.89642 12.0951 11.2721C8.65845 14.6477 6.72778 19.2261 6.72778 24C6.72778 28.7739 8.65845 33.3523 12.0951 36.7279C15.5317 40.1036 20.1927 42 25.0528 42V42Z" fill="#777777"/>
</svg>
