<svg width="125" height="59" viewBox="0 0 125 59" fill="none" xmlns="http://www.w3.org/2000/svg">
<path d="M30.5156 34.2891C30.6094 34.3828 30.7969 34.5938 31.0781 34.9219C31.4062 35.2031 31.6172 35.3906 31.7109 35.4844C31.8047 35.5781 31.9922 35.7891 32.2734 36.1172C32.6016 36.4453 32.7891 36.6797 32.8359 36.8203C32.9297 36.9141 33.1172 37.125 33.3984 37.4531C33.6797 37.7812 33.8203 38.0156 33.8203 38.1562C33.8672 38.2969 33.9844 38.5547 34.1719 38.9297C34.4062 39.3047 34.4766 39.5859 34.3828 39.7734C34.3359 39.9141 34.3594 40.1953 34.4531 40.6172C34.5938 40.9922 34.5938 41.2734 34.4531 41.4609C33.9375 43.4297 32.7656 44.6016 30.9375 44.9766C30.6094 45.0234 29.4609 44.9297 27.4922 44.6953C25.5703 44.4609 23.9531 44.3438 22.6406 44.3438H22.3594C21.0469 44.3438 19.4062 44.4609 17.4375 44.6953C15.5156 44.9297 14.3906 45.0234 14.0625 44.9766C12.2344 44.6016 11.0625 43.4297 10.5469 41.4609C10.4062 40.5234 10.5703 39.5625 11.0391 38.5781C11.5078 37.5938 11.9297 36.8906 12.3047 36.4688C12.7266 36.0469 13.4531 35.3203 14.4844 34.2891C14.9531 33.7734 15.5625 33.0469 16.3125 32.1094C17.1094 31.1719 17.7422 30.4453 18.2109 29.9297C19.0547 28.8984 19.9219 28.2422 20.8125 27.9609C21 27.8672 21.1641 27.8203 21.3047 27.8203C21.5859 27.7734 21.9844 27.75 22.5 27.75C23.0625 27.75 23.4609 27.7734 23.6953 27.8203C23.8359 27.8203 24 27.8672 24.1875 27.9609C25.0781 28.2422 25.9453 28.8984 26.7891 29.9297C27.2109 30.4453 27.8203 31.1719 28.6172 32.1094C29.4141 33.0469 30.0469 33.7734 30.5156 34.2891ZM31.0781 28.9453C30.375 28.1953 30.0234 27.3047 30.0234 26.2734C30.0234 25.2422 30.375 24.3516 31.0781 23.6016C31.8281 22.8516 32.7188 22.4766 33.75 22.4766C34.7812 22.4766 35.6484 22.8516 36.3516 23.6016C37.1016 24.3516 37.4766 25.2422 37.4766 26.2734C37.4766 27.3047 37.1016 28.1953 36.3516 28.9453C35.6484 29.6484 34.7812 30 33.75 30C32.7188 30 31.8281 29.6484 31.0781 28.9453ZM24.3281 22.8984C23.625 22.1484 23.2734 21.2578 23.2734 20.2266C23.2734 19.1953 23.625 18.3281 24.3281 17.625C25.0781 16.875 25.9688 16.5 27 16.5C28.0312 16.5 28.8984 16.875 29.6016 17.625C30.3516 18.3281 30.7266 19.1953 30.7266 20.2266C30.7266 21.2578 30.3516 22.1484 29.6016 22.8984C28.8984 23.6484 28.0312 24.0234 27 24.0234C25.9688 24.0234 25.0781 23.6484 24.3281 22.8984ZM15.3281 22.8984C14.625 22.1484 14.2734 21.2578 14.2734 20.2266C14.2734 19.1953 14.625 18.3281 15.3281 17.625C16.0781 16.875 16.9688 16.5 18 16.5C19.0312 16.5 19.8984 16.875 20.6016 17.625C21.3516 18.3281 21.7266 19.1953 21.7266 20.2266C21.7266 21.2578 21.3516 22.1484 20.6016 22.8984C19.8984 23.6484 19.0312 24.0234 18 24.0234C16.9688 24.0234 16.0781 23.6484 15.3281 22.8984ZM8.57812 28.9453C7.875 28.1953 7.52344 27.3047 7.52344 26.2734C7.52344 25.2422 7.875 24.3516 8.57812 23.6016C9.32812 22.8516 10.2188 22.4766 11.25 22.4766C12.2812 22.4766 13.1484 22.8516 13.8516 23.6016C14.6016 24.3516 14.9766 25.2422 14.9766 26.2734C14.9766 27.3047 14.6016 28.1953 13.8516 28.9453C13.1484 29.6484 12.2812 30 11.25 30C10.2188 30 9.32812 29.6484 8.57812 28.9453Z" fill="#554236"/>
</svg>
